<?xml version="1.0" encoding="UTF-8"?>
<svg width="684px" height="148px" viewBox="0 0 684 148" version="1.1" xmlns="http://www.w3.org/2000/svg" xmlns:xlink="http://www.w3.org/1999/xlink">
    <defs></defs>
    <g id="Page-1" stroke="none" stroke-width="1" fill="none" fill-rule="evenodd">
        <g id="doorzon_silhouet" fill-rule="nonzero" fill="#FFFFFF">
            <path d="M203.9,75.6 L208,75.6 L208,65.4 L202.8,65.4 L203.9,75.6 Z M253.3,19.9 L200.3,19.9 L200.3,7.1 L187,7.1 L187,19.9 L122.7,19.9 L122.7,7.1 L109.4,7.1 L109.4,19.9 L45.2,19.9 L45.2,7.1 L32,7.1 L32,19.9 L29.7,19.9 L0.8,72.7 L0.8,147.1 L203.8,147.1 L204.3,128.7 C204.3,127.5 205,126.5 206,126.2 L206,124.4 L205.9,124.4 C205.4,124.4 205,124 205,123.5 C205,123 205.4,122.6 205.9,122.6 L206.1,122.6 L207,85.7 L206.8,85.7 C206.3,85.7 206,85.3 206,84.9 L206,84.4 C206,83.9 206.3,83.5 206.7,83.2 L206.7,82.3 C206.7,81.8 207,81.3 207.4,81.1 C207.1,80.9 206.8,80.5 206.7,80.2 L203.3,80.2 C203.1,80.5 202.8,80.8 202.3,80.8 C201.7,80.8 201.2,80.3 201.2,79.7 C201.2,79.1 201.7,78.6 202.3,78.6 C202.7,78.6 203.1,78.8 203.3,79.2 L206.7,79.2 C206.9,78.6 207.3,78.2 207.9,78 L207.9,76.8 L202.8,76.8 L201.6,65.4 L201.1,65.4 C200.4,65.4 200.2,64.4 200.8,64.1 L208.1,61.3 C207.6,61.2 207.3,60.7 207.3,60.2 C207.3,59.6 207.8,59.1 208.4,59.1 C209,59.1 209.5,59.6 209.5,60.2 C209.5,60.7 209.2,61.1 208.7,61.3 L216,64.1 C216.6,64.4 216.4,65.4 215.7,65.4 L215.2,65.4 L214,76.8 L208.9,76.8 L208.9,78 C209.4,78.2 209.9,78.6 210,79.2 L213.5,79.2 C213.7,78.9 214,78.6 214.5,78.6 C215.1,78.6 215.6,79.1 215.6,79.7 C215.6,80.3 215.1,80.8 214.5,80.8 C214.1,80.8 213.7,80.6 213.5,80.2 L210,80.2 C209.9,80.6 209.6,80.9 209.3,81.2 C209.7,81.4 210,81.9 210,82.4 L210,83.3 C210.4,83.5 210.7,83.9 210.7,84.5 L210.7,85 C210.7,85.5 210.3,85.8 209.9,85.8 L210,85.8 L210.9,122.7 L211.1,122.7 C211.6,122.7 212,123.1 212,123.6 C212,124.1 211.6,124.5 211.1,124.5 L211,124.5 L211,126.3 C211.9,126.6 212.6,127.6 212.7,128.8 L213.2,147.2 L282,147.2 L282,72.8 L253.3,19.9 L253.3,19.9 Z M213.2,75.6 L214.3,65.4 L209.1,65.4 L209.1,73.9 L210.4,73.9 L210.4,75.7 L213.2,75.7 L213.2,75.6 Z M322.6,134.6 L319.6,134.6 L319.6,123.1 C319.6,121.1 318,119.5 316,119.5 L292,119.5 C290,119.5 288.4,121.1 288.4,123.1 L288.4,133.2 L285.4,133.2 L285.4,123.1 C285.4,119.5 288.4,116.5 292,116.5 L316,116.5 C319.6,116.5 322.6,119.5 322.6,123.1 L322.6,134.6 Z" id="Shape"></path>
            <polygon id="Shape" points="287 124.9 321.1 124.9 321.1 127.9 287 127.9"></polygon>
            <polygon id="XMLID_53_" points="390.8 102.3 395 102.3 395 136.8 390.8 136.8"></polygon>
            <path d="M390.4,104.1 L393.5,104.1 C407.4,104.1 418.7,92.8 418.7,78.9 L418.7,25.7 C418.7,11.8 407.4,0.5 393.5,0.5 L390.4,0.5 C376.5,0.5 365.2,11.8 365.2,25.7 L365.2,79 C365.3,92.9 376.5,104.1 390.4,104.1 Z" id="XMLID_51_"></path>
            <path d="M310.1,78.3 C312.2,75 312.9,71 311.8,67.2 C311.4,65.7 311.2,64.2 311.2,62.6 C311.2,59.2 312.2,55.9 314,53.3 C315.8,50.5 316.3,47.2 315.5,44 C315.2,43 315.1,41.9 315.1,40.8 C315.1,33.4 321.5,27.2 328.9,27.5 C336.1,27.7 341.8,33.6 341.8,40.8 C341.8,41.9 341.7,43 341.4,44 C340.6,47.2 341.1,50.5 342.9,53.3 C344.6,56 345.7,59.2 345.7,62.6 C345.7,64.2 345.5,65.7 345.1,67.2 C344.1,70.9 344.6,74.9 346.7,78.1 C349.1,81.8 350.4,86.2 350.1,91 C349.5,102.4 340,111.4 328.6,111.5 C316.6,111.6 306.9,101.9 306.9,89.9 C306.7,85.6 308,81.6 310.1,78.3 L310.1,78.3 Z" id="XMLID_54_"></path>
            <path d="M325.9,103.8 L330.8,103.8 L330.8,134.2 L325.9,134.2 L325.9,103.8 Z M359.9,144.3 C359.8,143.7 359.7,143.1 359.7,142.5 C359.7,137.6 363.7,133.6 368.6,133.6 C370.7,133.6 372.6,134.3 374.1,135.5 C374.1,135.2 374,134.9 374,134.6 C374,129.7 378,125.7 382.9,125.7 C384.5,125.7 385.9,126.1 387.2,126.9 C387.8,122.5 391.5,119.2 396,119.2 C400.9,119.2 404.9,123.2 404.9,128.1 C404.9,128.8 404.8,129.5 404.6,130.2 C405.1,130.1 405.5,130.1 406,130.1 C412.1,130.1 417.1,135.1 417.1,141.2 C417.1,142.3 416.9,143.3 416.6,144.3 L359.9,144.3 L359.9,144.3 Z" id="Shape"></path>
            <polygon id="Shape" points="276.7 133.2 418.7 133.2 418.7 147.1 276.7 147.1"></polygon>
            <path d="M657.7,42.8 L657.7,22.8 L649.8,22.8 L649.8,32.7 L633.3,11.6 L588.4,68.5 L567.7,42 L567.7,22.8 L559.8,22.8 L559.8,31.8 L544,11.6 L499.1,68.5 L478.6,42.3 L478.6,22.8 L470.7,22.8 L470.7,32.1 L454.7,11.6 L403.5,76.6 L407.7,79.9 L409.8,77.2 L409.8,147.1 L562,147.1 C562,146.7 561.9,146.3 561.9,145.9 C561.9,140.4 566.4,135.9 571.9,135.9 C572.3,135.9 572.8,135.9 573.2,136 C573.1,135.4 573,134.8 573,134.1 C573,129.7 576.6,126.1 581,126.1 C585.1,126.1 588.4,129.1 588.9,133.1 C590.1,132.5 591.4,132.1 592.8,132.1 C597.2,132.1 600.8,135.7 600.8,140.1 C600.8,140.4 600.7,140.6 600.7,140.9 C602.1,139.8 603.8,139.2 605.6,139.2 C610,139.2 613.6,142.8 613.6,147.2 L678.1,147.2 L678.1,77.9 L679.8,80 L684,76.7 L657.7,42.8 L657.7,42.8 Z M461.4,81.2 L447.3,81.2 L447.3,58.6 L461.4,58.6 L461.4,81.2 Z M550.7,81.2 L536.6,81.2 L536.6,58.6 L550.7,58.6 L550.7,81.2 Z M640.1,81.2 L626,81.2 L626,58.6 L640.1,58.6 L640.1,81.2 Z" id="Shape"></path>
        </g>
    </g>
</svg>